<?xml version="1.0" encoding="utf-8"?>
<!-- Generator: Adobe Illustrator 26.0.0, SVG Export Plug-In . SVG Version: 6.00 Build 0)  -->
<svg version="1.1" id="Layer_1" xmlns="http://www.w3.org/2000/svg" xmlns:xlink="http://www.w3.org/1999/xlink" x="0px" y="0px"
	 viewBox="0 0 1080 1080" style="enable-background:new 0 0 1080 1080;" xml:space="preserve">
<style type="text/css">
	.st0{fill:#008080;}
</style>
<g>
	<g>
		<path class="st0" d="M767.64,546.23c-69.14-23.07-137.32-35.93-204.53-38.65v-5.38c0-12.43,5.88-23.82,15.71-30.49
			c19.43-13.09,30.86-34.95,30.58-58.48v-0.01c-0.56-37.23-31.25-67.91-68.45-68.4h-1.01c-18.41,0-35.7,7.08-48.7,19.94
			c-13.31,13.17-20.64,30.74-20.64,49.46c0,12.74,10.37,23.1,23.11,23.1s23.11-10.37,23.11-23.1c0-6.32,2.43-12.2,6.84-16.55
			c4.47-4.35,10.24-6.64,16.65-6.64c12,0.13,22.69,10.8,22.88,22.83c0.12,7.84-3.71,15.16-10.25,19.57
			c-22.57,15.25-36.05,40.95-36.05,68.78v5.22c-69.38,2.04-137.72,14.93-205.01,38.94c-12.95,4.62-20.37,18.23-16.93,31.53
			c3.85,14.91,19.59,23.3,34.13,18.23c131.83-45.95,273-42.48,421.95,2.24c13.87,4.16,28.54-3.26,32.98-17.04l0.61-1.89
			C789.08,565.59,781.44,550.84,767.64,546.23z"/>
		<g>
			<g>
				<path class="st0" d="M441.46,300.26l7.18,180.44l-49.58,9.6l-37.94-63.77c-5.41-9.37-10.83-19.86-16.12-31.41
					c-0.12-0.41-0.32-0.69-0.55-1.07c0.09,0.31,0.11,0.75,0.21,1.06c2.2,12.48,3.6,24.18,4.21,35.12l3.83,72.52l-48.3,16.71
					l-92.35-149.87l48.78-14.74l31.71,58.48c4.04,7.43,8.14,15.4,12.18,23.95c3.69,7.76,7.28,15.55,10.84,23.23
					c-1.09-8.43-2.31-16.94-3.33-25.5c-1.26-9.39-2.17-18.33-2.71-26.81l-4.64-66.66l43.64-13.19l33.15,58.05
					c4.14,7.4,8.44,15.31,12.59,23.82c3.76,7.62,7.53,15.25,11.16,22.8c-1.16-8.3-2.45-16.67-3.64-25.07
					c-1.37-9.36-2.48-18.23-3.23-26.66L392.68,315L441.46,300.26z"/>
			</g>
			<g>
				<path class="st0" d="M638.54,300.26l-7.18,180.44l49.58,9.6l37.94-63.77c5.41-9.37,10.83-19.86,16.12-31.41
					c0.12-0.41,0.32-0.69,0.55-1.07c-0.09,0.31-0.11,0.75-0.21,1.06c-2.2,12.48-3.6,24.18-4.21,35.12l-3.83,72.52l48.3,16.71
					l92.35-149.87l-48.78-14.74l-31.71,58.48c-4.04,7.43-8.14,15.4-12.18,23.95c-3.69,7.76-7.28,15.55-10.84,23.23
					c1.09-8.43,2.31-16.94,3.33-25.5c1.26-9.39,2.17-18.33,2.71-26.81l4.64-66.66l-43.64-13.19l-33.15,58.05
					c-4.14,7.4-8.44,15.31-12.59,23.82c-3.76,7.62-7.53,15.25-11.16,22.8c1.16-8.3,2.45-16.67,3.64-25.07
					c1.37-9.36,2.48-18.23,3.23-26.66l5.88-66.29L638.54,300.26z"/>
			</g>
		</g>
	</g>
	<g>
		<path d="M211.77,727.59c-0.92,4.17-1.83,8.51-2.73,13.02c-0.9,4.51-1.75,9.03-2.55,13.57c-0.25,1.42-0.5,2.82-0.76,4.23
			c-0.27-1.41-0.53-2.81-0.81-4.23c-0.87-4.53-1.76-9.06-2.65-13.57c-0.9-4.51-1.88-8.85-2.95-13.02l-14.62-57.83h-20.59
			l-14.69,57.83c-1.02,4.17-1.99,8.51-2.91,13.02c-0.92,4.51-1.81,9.03-2.65,13.57c-0.28,1.48-0.55,2.94-0.82,4.4
			c-0.26-1.46-0.52-2.93-0.78-4.4c-0.8-4.53-1.62-9.06-2.47-13.57c-0.85-4.51-1.78-8.85-2.8-13.02l-14.11-57.83h-20.73l29.24,108.38
			h22.19l15.93-60.45c1.5-5.72,2.75-11.66,3.75-17.82c0.35-2.14,0.72-4.34,1.1-6.56c0.42,2.37,0.83,4.7,1.23,6.96
			c1.09,6.23,2.34,12.04,3.75,17.42l15.93,60.45h22.11l29.39-108.38h-20.88L211.77,727.59z"/>
		<path d="M313.82,700.24c-4.17-2.38-9.02-3.56-14.55-3.56c-6.64,0-12.18,1.77-16.62,5.31c-3.08,2.46-5.63,5.77-7.67,9.89v-42.12
			h-18.62v108.38h18.77v-46.7c0-4.07,0.75-7.49,2.25-10.26c1.5-2.76,3.55-4.86,6.15-6.29c2.59-1.43,5.54-2.15,8.84-2.15
			c4.99,0,8.89,1.53,11.67,4.58c2.79,3.05,4.18,7.35,4.18,12.87v47.93h18.84V727.3c0-6.55-1.16-12.1-3.49-16.66
			S317.99,702.62,313.82,700.24z"/>
		<path d="M398.21,702.82c-3.15-2.16-6.68-3.72-10.58-4.69s-7.89-1.45-11.97-1.45c-5.72,0-10.92,0.84-15.6,2.51
			c-4.68,1.67-8.63,4.15-11.86,7.42c-3.22,3.27-5.49,7.36-6.8,12.26l17.53,2.76c0.58-1.89,1.59-3.62,3.02-5.2s3.3-2.84,5.6-3.78
			c2.3-0.95,4.98-1.42,8.04-1.42c3.1,0,5.7,0.48,7.78,1.45c2.09,0.97,3.67,2.36,4.76,4.18c1.09,1.82,1.64,4.01,1.64,6.58v0.44
			c0,1.79-0.67,3.13-2,4c-1.33,0.87-3.46,1.5-6.36,1.89s-6.74,0.85-11.49,1.38c-3.93,0.39-7.73,1.04-11.42,1.96
			c-3.69,0.92-7,2.27-9.93,4.04c-2.93,1.77-5.25,4.13-6.95,7.09c-1.7,2.96-2.55,6.72-2.55,11.27c0,5.29,1.19,9.72,3.56,13.31
			c2.38,3.59,5.61,6.3,9.71,8.15c4.1,1.84,8.72,2.76,13.86,2.76c4.22,0,7.87-0.58,10.95-1.75c3.08-1.16,5.66-2.72,7.75-4.66
			c2.09-1.94,3.71-4.05,4.87-6.33h0.65v11.13h18.11v-53.9c0-5.09-0.93-9.4-2.8-12.91C403.87,707.82,401.36,704.98,398.21,702.82z
			 M389.91,749.12c0,3.01-0.76,5.77-2.29,8.29s-3.71,4.55-6.55,6.07c-2.84,1.53-6.19,2.29-10.07,2.29c-2.72,0-5.09-0.4-7.13-1.2
			c-2.04-0.8-3.64-1.98-4.8-3.53s-1.75-3.47-1.75-5.75c0-2.47,0.65-4.47,1.96-6c1.31-1.53,3.09-2.74,5.35-3.64
			c2.25-0.9,4.76-1.54,7.53-1.93c1.36-0.15,2.92-0.35,4.69-0.62s3.54-0.56,5.31-0.87c1.77-0.32,3.35-0.68,4.73-1.09
			c1.38-0.41,2.39-0.86,3.02-1.35V749.12z"/>
		<path d="M458.94,763.45c-1.45,0.15-2.64,0.22-3.56,0.22c-2.91,0-4.98-0.65-6.22-1.96c-1.24-1.31-1.85-3.39-1.85-6.26v-42.84h15.71
			v-14.77H447.3v-19.71h-18.77v19.71h-12v14.77h12v44.66c0,7.03,2.04,12.41,6.11,16.15c4.07,3.73,10.01,5.6,17.82,5.6
			c2.04,0,4.12-0.11,6.26-0.33s4.15-0.57,6.04-1.05l-2.33-14.62C461.56,763.16,460.4,763.31,458.94,763.45z"/>
		<path d="M734.71,665.86l-14.6,59.84c-0.95,4.32-1.89,8.81-2.82,13.47c-0.93,4.67-1.81,9.35-2.63,14.04
			c-0.26,1.47-0.52,2.92-0.78,4.37c-0.28-1.46-0.55-2.91-0.84-4.37c-0.9-4.69-1.82-9.37-2.75-14.04c-0.93-4.67-1.94-9.16-3.05-13.47
			l-15.13-59.84h-21.3L655.6,725.7c-1.05,4.32-2.06,8.81-3.01,13.47c-0.95,4.67-1.87,9.35-2.75,14.04
			c-0.29,1.53-0.57,3.04-0.85,4.56c-0.27-1.52-0.53-3.03-0.8-4.56c-0.83-4.69-1.68-9.37-2.56-14.04c-0.88-4.67-1.84-9.16-2.9-13.47
			l-14.6-59.84h-21.45l30.26,112.16h22.96l16.48-62.55c1.56-5.92,2.85-12.07,3.88-18.44c0.36-2.22,0.74-4.49,1.14-6.79
			c0.43,2.45,0.86,4.87,1.27,7.21c1.13,6.45,2.42,12.46,3.88,18.03l16.48,62.55h22.88l30.41-112.16H734.71z"/>
		<path d="M821.01,704.13c-3.54-3.49-7.63-6.1-12.27-7.83c-4.64-1.73-9.6-2.6-14.87-2.6c-7.88,0-14.77,1.82-20.66,5.46
			c-5.9,3.64-10.46,8.71-13.7,15.21c-3.24,6.5-4.86,13.99-4.86,22.47c0,8.63,1.63,16.16,4.89,22.58s7.92,11.42,13.96,14.98
			c6.05,3.56,13.24,5.34,21.57,5.34c6.22,0,11.82-0.98,16.79-2.94s9.1-4.69,12.38-8.2c3.29-3.51,5.56-7.6,6.81-12.27l-17.91-2.86
			c-0.85,2.36-2.12,4.35-3.8,5.98c-1.68,1.63-3.7,2.87-6.06,3.73c-2.36,0.85-4.99,1.28-7.9,1.28c-4.32,0-8.09-0.93-11.33-2.79
			c-3.24-1.86-5.73-4.59-7.49-8.2c-1.58-3.26-2.45-7.15-2.6-11.67h58.38v-5.87c0-7.13-1-13.34-3.01-18.63
			C827.32,712.01,824.55,707.62,821.01,704.13z M783.19,711.92c3.01-1.96,6.62-2.94,10.84-2.94c4.27,0,7.84,0.97,10.73,2.9
			c2.89,1.93,5.08,4.65,6.59,8.17c1.08,2.52,1.77,5.36,2.07,8.51h-39.36c0.28-3.12,1.02-6,2.24-8.62
			C777.88,716.55,780.17,713.88,783.19,711.92z"/>
		<path d="M903.4,700.07c-3.26-2.23-6.91-3.85-10.95-4.86s-8.17-1.51-12.38-1.51c-5.92,0-11.3,0.87-16.15,2.6
			c-4.84,1.73-8.93,4.29-12.27,7.68s-5.68,7.62-7.04,12.68l18.14,2.86c0.6-1.96,1.64-3.75,3.12-5.38s3.41-2.94,5.8-3.91
			c2.38-0.98,5.16-1.47,8.32-1.47c3.21,0,5.9,0.5,8.05,1.51c2.16,1,3.8,2.45,4.93,4.33s1.69,4.15,1.69,6.81v0.45
			c0,1.86-0.69,3.24-2.07,4.14s-3.58,1.56-6.59,1.96c-3.01,0.4-6.98,0.88-11.89,1.43c-4.06,0.4-8,1.08-11.82,2.03
			c-3.81,0.95-7.24,2.35-10.27,4.18s-5.43,4.28-7.19,7.34s-2.63,6.95-2.63,11.67c0,5.47,1.23,10.06,3.69,13.77s5.81,6.52,10.05,8.43
			c4.24,1.91,9.02,2.86,14.34,2.86c4.37,0,8.14-0.6,11.33-1.81c3.19-1.2,5.86-2.81,8.02-4.82c2.16-2.01,3.84-4.19,5.04-6.55h0.68
			v11.52h18.74v-55.78c0-5.27-0.97-9.72-2.9-13.36S906.66,702.3,903.4,700.07z M894.82,747.98c0,3.11-0.79,5.97-2.37,8.58
			c-1.58,2.61-3.84,4.7-6.77,6.29c-2.94,1.58-6.41,2.37-10.43,2.37c-2.81,0-5.27-0.41-7.38-1.24c-2.11-0.83-3.76-2.04-4.97-3.65
			c-1.2-1.61-1.81-3.59-1.81-5.95c0-2.56,0.68-4.63,2.03-6.21c1.35-1.58,3.2-2.84,5.53-3.76c2.33-0.93,4.93-1.59,7.79-1.99
			c1.41-0.15,3.02-0.36,4.86-0.64c1.83-0.28,3.66-0.58,5.49-0.9c1.83-0.33,3.46-0.7,4.89-1.13c1.43-0.43,2.47-0.89,3.12-1.39V747.98
			z"/>
		<path d="M974.57,693.97c-1.28-0.08-2.5-0.11-3.65-0.11c-4.92,0-9.18,1.28-12.8,3.84s-6.17,6.25-7.68,11.07h-0.75v-13.85h-18.82
			v83.1h19.42v-48.48c0-3.76,0.8-7.01,2.41-9.75c1.61-2.73,3.8-4.86,6.59-6.36c2.79-1.51,5.91-2.26,9.37-2.26
			c1.76,0,3.53,0.1,5.31,0.3c1.78,0.2,3.07,0.4,3.88,0.6v-17.76C976.94,694.16,975.85,694.05,974.57,693.97z"/>
		<path d="M545.19,663.32c-32.15,0-58.21,26.06-58.21,58.21s26.06,58.21,58.21,58.21c32.15,0,58.21-26.06,58.21-58.21
			S577.34,663.32,545.19,663.32z M567.53,750.41h-43.72v-11.08l21.29-17.5c1.32-1.12,2.51-2.19,3.55-3.21
			c1.04-1.02,1.87-2.1,2.47-3.23c0.6-1.13,0.9-2.4,0.9-3.8c0-1.43-0.31-2.66-0.92-3.69c-0.61-1.03-1.46-1.83-2.54-2.39
			c-1.08-0.56-2.34-0.84-3.76-0.84c-1.43,0-2.69,0.3-3.8,0.9c-1.11,0.6-1.97,1.48-2.58,2.64c-0.61,1.16-0.92,2.59-0.92,4.3h-14.64
			c0-4.1,0.9-7.63,2.69-10.59c1.8-2.96,4.34-5.24,7.64-6.84c3.3-1.61,7.18-2.41,11.64-2.41c4.48,0,8.39,0.73,11.71,2.18
			c3.32,1.45,5.9,3.5,7.74,6.15c1.83,2.65,2.75,5.77,2.75,9.36c0,2.34-0.48,4.6-1.43,6.77c-0.96,2.17-2.55,4.48-4.8,6.96
			c-2.24,2.47-5.34,5.34-9.29,8.6l-6.23,5.12v0.31h22.24V750.41z"/>
	</g>
</g>
</svg>
